<svg width="24" height="24" viewBox="0 0 24 24" fill="none" xmlns="http://www.w3.org/2000/svg">
<mask id="mask0_622_23951" style="mask-type:alpha" maskUnits="userSpaceOnUse" x="0" y="0" width="24" height="24">
<rect width="24" height="24" fill="#D9D9D9"/>
</mask>
<g mask="url(#mask0_622_23951)">
<path d="M6.29869 22C5.71298 22 5.21157 21.8042 4.79447 21.4125C4.37737 21.0208 4.16882 20.55 4.16882 20V6C4.16882 5.45 4.37737 4.97917 4.79447 4.5875C5.21157 4.19583 5.71298 4 6.29869 4H7.36363V2H9.4935V4H18.013V2H20.1428V4H21.2078C21.7935 4 22.2949 4.19583 22.712 4.5875C23.1291 4.97917 23.3377 5.45 23.3377 6V20C23.3377 20.55 23.1291 21.0208 22.712 21.4125C22.2949 21.8042 21.7935 22 21.2078 22H6.29869ZM6.29869 20H21.2078V10H6.29869V20ZM6.29869 8H21.2078V6H6.29869V8ZM13.7532 14C13.4515 14 13.1986 13.9042 12.9945 13.7125C12.7904 13.5208 12.6883 13.2833 12.6883 13C12.6883 12.7167 12.7904 12.4792 12.9945 12.2875C13.1986 12.0958 13.4515 12 13.7532 12C14.055 12 14.3079 12.0958 14.512 12.2875C14.7161 12.4792 14.8182 12.7167 14.8182 13C14.8182 13.2833 14.7161 13.5208 14.512 13.7125C14.3079 13.9042 14.055 14 13.7532 14ZM9.4935 14C9.19177 14 8.93884 13.9042 8.73473 13.7125C8.53062 13.5208 8.42856 13.2833 8.42856 13C8.42856 12.7167 8.53062 12.4792 8.73473 12.2875C8.93884 12.0958 9.19177 12 9.4935 12C9.79523 12 10.0482 12.0958 10.2523 12.2875C10.4564 12.4792 10.5584 12.7167 10.5584 13C10.5584 13.2833 10.4564 13.5208 10.2523 13.7125C10.0482 13.9042 9.79523 14 9.4935 14ZM18.013 14C17.7112 14 17.4583 13.9042 17.2542 13.7125C17.0501 13.5208 16.948 13.2833 16.948 13C16.948 12.7167 17.0501 12.4792 17.2542 12.2875C17.4583 12.0958 17.7112 12 18.013 12C18.3147 12 18.5676 12.0958 18.7717 12.2875C18.9759 12.4792 19.0779 12.7167 19.0779 13C19.0779 13.2833 18.9759 13.5208 18.7717 13.7125C18.5676 13.9042 18.3147 14 18.013 14ZM13.7532 18C13.4515 18 13.1986 17.9042 12.9945 17.7125C12.7904 17.5208 12.6883 17.2833 12.6883 17C12.6883 16.7167 12.7904 16.4792 12.9945 16.2875C13.1986 16.0958 13.4515 16 13.7532 16C14.055 16 14.3079 16.0958 14.512 16.2875C14.7161 16.4792 14.8182 16.7167 14.8182 17C14.8182 17.2833 14.7161 17.5208 14.512 17.7125C14.3079 17.9042 14.055 18 13.7532 18ZM9.4935 18C9.19177 18 8.93884 17.9042 8.73473 17.7125C8.53062 17.5208 8.42856 17.2833 8.42856 17C8.42856 16.7167 8.53062 16.4792 8.73473 16.2875C8.93884 16.0958 9.19177 16 9.4935 16C9.79523 16 10.0482 16.0958 10.2523 16.2875C10.4564 16.4792 10.5584 16.7167 10.5584 17C10.5584 17.2833 10.4564 17.5208 10.2523 17.7125C10.0482 17.9042 9.79523 18 9.4935 18ZM18.013 18C17.7112 18 17.4583 17.9042 17.2542 17.7125C17.0501 17.5208 16.948 17.2833 16.948 17C16.948 16.7167 17.0501 16.4792 17.2542 16.2875C17.4583 16.0958 17.7112 16 18.013 16C18.3147 16 18.5676 16.0958 18.7717 16.2875C18.9759 16.4792 19.0779 16.7167 19.0779 17C19.0779 17.2833 18.9759 17.5208 18.7717 17.7125C18.5676 17.9042 18.3147 18 18.013 18Z" fill="#3C3C3C"/>
</g>
</svg>
