<svg width="31" height="30" viewBox="0 0 31 30" fill="none" xmlns="http://www.w3.org/2000/svg">
<path d="M27.5357 24.5675C29.0755 22.7164 30.1465 20.5219 30.658 18.1698C31.1695 15.8177 31.1065 13.3771 30.4743 11.0545C29.8421 8.73182 28.6593 6.59548 27.0261 4.82616C25.3928 3.05685 23.3571 1.7066 21.0911 0.889657C18.8251 0.0727109 16.3955 -0.186904 14.0078 0.132774C11.6202 0.452451 9.3447 1.34202 7.37389 2.72622C5.40309 4.11042 3.79494 5.94854 2.68548 8.08507C1.57602 10.2216 0.997896 12.5937 1.00001 15.0007C1.00091 18.4998 2.23498 21.8868 4.48571 24.5675L4.46427 24.5857C4.53932 24.6757 4.6251 24.7528 4.70229 24.8417C4.79879 24.9521 4.90279 25.056 5.00251 25.1631C5.30129 25.4895 5.61223 25.8002 5.93532 26.0952C6.03539 26.1837 6.13546 26.2701 6.23553 26.3544C6.57863 26.6508 6.93246 26.9301 7.297 27.1922C7.34418 27.2243 7.38707 27.2661 7.43424 27.2993V27.2864C9.94538 29.0523 12.9411 30 16.0118 30C19.0825 30 22.0782 29.0523 24.5894 27.2864V27.2993C24.6365 27.2661 24.6783 27.2243 24.7266 27.1922C25.0911 26.9293 25.445 26.6501 25.7881 26.3544C25.8881 26.2694 25.9882 26.183 26.0883 26.0952C26.4107 25.8002 26.7216 25.4895 27.0211 25.1631C27.1208 25.056 27.2237 24.9521 27.3213 24.8417C27.3974 24.7528 27.4843 24.6757 27.5593 24.5846L27.5357 24.5675ZM16.0107 6.43025C16.965 6.43025 17.8978 6.71299 18.6913 7.24272C19.4847 7.77244 20.1031 8.52536 20.4683 9.40626C20.8335 10.2872 20.9291 11.2565 20.7429 12.1916C20.5567 13.1268 20.0972 13.9858 19.4224 14.66C18.7477 15.3342 17.8879 15.7934 16.952 15.9794C16.0161 16.1654 15.046 16.0699 14.1643 15.705C13.2827 15.3402 12.5292 14.7223 11.999 13.9295C11.4688 13.1367 11.1859 12.2046 11.1859 11.2511C11.1859 9.97256 11.6942 8.74635 12.599 7.84226C13.5039 6.93817 14.7311 6.43025 16.0107 6.43025ZM7.44068 24.5675C7.45928 23.1608 8.0314 21.818 9.03327 20.8296C10.0351 19.8412 11.3862 19.2866 12.7941 19.2859H19.2273C20.6353 19.2866 21.9863 19.8412 22.9882 20.8296C23.9901 21.818 24.5622 23.1608 24.5808 24.5675C22.2293 26.6847 19.1761 27.8565 16.0107 27.8565C12.8453 27.8565 9.79217 26.6847 7.44068 24.5675Z" fill="#212121"/>
</svg>
