<svg width="24" height="25" viewBox="0 0 24 25" fill="none" xmlns="http://www.w3.org/2000/svg">
<mask id="mask0_789_782" style="mask-type:alpha" maskUnits="userSpaceOnUse" x="0" y="0" width="24" height="25">
<rect y="0.5" width="24" height="24" fill="#D9D9D9"/>
</mask>
<g mask="url(#mask0_789_782)">
<path d="M12 21.4999L10.55 20.1999C8.86667 18.6832 7.475 17.3749 6.375 16.2749C5.275 15.1749 4.4 14.1874 3.75 13.3124C3.1 12.4374 2.64583 11.6332 2.3875 10.8999C2.12917 10.1666 2 9.41657 2 8.6499C2 7.08324 2.525 5.7749 3.575 4.7249C4.625 3.6749 5.93333 3.1499 7.5 3.1499C8.36667 3.1499 9.19167 3.33324 9.975 3.6999C10.7583 4.06657 11.4333 4.58324 12 5.2499C12.5667 4.58324 13.2417 4.06657 14.025 3.6999C14.8083 3.33324 15.6333 3.1499 16.5 3.1499C18.0667 3.1499 19.375 3.6749 20.425 4.7249C21.475 5.7749 22 7.08324 22 8.6499C22 9.41657 21.8708 10.1666 21.6125 10.8999C21.3542 11.6332 20.9 12.4374 20.25 13.3124C19.6 14.1874 18.725 15.1749 17.625 16.2749C16.525 17.3749 15.1333 18.6832 13.45 20.1999L12 21.4999ZM12 18.7999C13.6 17.3666 14.9167 16.1374 15.95 15.1124C16.9833 14.0874 17.8 13.1957 18.4 12.4374C19 11.6791 19.4167 11.0041 19.65 10.4124C19.8833 9.82074 20 9.23324 20 8.6499C20 7.6499 19.6667 6.81657 19 6.1499C18.3333 5.48324 17.5 5.1499 16.5 5.1499C15.7167 5.1499 14.9917 5.37074 14.325 5.8124C13.6583 6.25407 13.2 6.81657 12.95 7.4999H11.05C10.8 6.81657 10.3417 6.25407 9.675 5.8124C9.00833 5.37074 8.28333 5.1499 7.5 5.1499C6.5 5.1499 5.66667 5.48324 5 6.1499C4.33333 6.81657 4 7.6499 4 8.6499C4 9.23324 4.11667 9.82074 4.35 10.4124C4.58333 11.0041 5 11.6791 5.6 12.4374C6.2 13.1957 7.01667 14.0874 8.05 15.1124C9.08333 16.1374 10.4 17.3666 12 18.7999Z" fill="#1C1B1F"/>
</g>
</svg>
