<svg width="24" height="25" viewBox="0 0 24 25" fill="none" xmlns="http://www.w3.org/2000/svg">
<mask id="mask0_789_672" style="mask-type:alpha" maskUnits="userSpaceOnUse" x="0" y="0" width="24" height="25">
<rect y="0.5" width="24" height="24" fill="#D9D9D9"/>
</mask>
<g mask="url(#mask0_789_672)">
<path d="M4.17503 21.4999C3.82503 21.5832 3.52086 21.4957 3.26253 21.2374C3.0042 20.9791 2.9167 20.6749 3.00003 20.3249L4.00003 15.5499L8.95003 20.4999L4.17503 21.4999ZM8.95003 20.4999L4.00003 15.5499L15.45 4.0999C15.8334 3.71657 16.3084 3.5249 16.875 3.5249C17.4417 3.5249 17.9167 3.71657 18.3 4.0999L20.4 6.1999C20.7834 6.58324 20.975 7.05824 20.975 7.6249C20.975 8.19157 20.7834 8.66657 20.4 9.0499L8.95003 20.4999ZM16.875 5.4999L6.52503 15.8499L8.65003 17.9749L19 7.6249L16.875 5.4999Z" fill="#212121"/>
</g>
</svg>
