<svg width="20" height="20" viewBox="0 0 20 20" fill="none" xmlns="http://www.w3.org/2000/svg">
<path d="M4.16671 15.833H5.08171L13.9967 6.91802L13.0817 6.00302L4.16671 14.918V15.833ZM3.33337 16.6664V14.5664L14.3167 3.57302C14.4028 3.49691 14.4973 3.43802 14.6 3.39635C14.7028 3.35469 14.8103 3.33358 14.9225 3.33302C15.0348 3.33246 15.1431 3.35024 15.2475 3.38635C15.3531 3.42135 15.4503 3.48469 15.5392 3.57635L16.4284 4.47135C16.52 4.55969 16.5828 4.65691 16.6167 4.76302C16.65 4.86858 16.6667 4.97413 16.6667 5.07969C16.6667 5.19302 16.6478 5.30135 16.61 5.40469C16.5717 5.50747 16.5112 5.60163 16.4284 5.68719L5.43254 16.6664H3.33337ZM13.5317 6.46802L13.0817 6.00302L13.9967 6.91802L13.5317 6.46802Z" fill="#555555"/>
</svg>
