<svg width="20" height="20" viewBox="0 0 20 20" fill="none" xmlns="http://www.w3.org/2000/svg">
<g clip-path="url(#clip0_11_4891)">
<path d="M3.60707 4.1423C3.32291 4.1423 3.05039 4.25518 2.84946 4.45611C2.64853 4.65705 2.53564 4.92957 2.53564 5.21373V15.3923C2.53564 15.6765 2.64853 15.949 2.84946 16.1499C3.05039 16.3508 3.32291 16.4637 3.60707 16.4637H15.3928C15.6769 16.4637 15.9495 16.3508 16.1504 16.1499C16.3513 15.949 16.4642 15.6765 16.4642 15.3923V5.21373C16.4642 4.92957 16.3513 4.65705 16.1504 4.45611C15.9495 4.25518 15.6769 4.1423 15.3928 4.1423H13.2499M5.74993 2.53516V5.74944M13.2499 2.53516V5.74944M5.74993 4.1423H11.1071" stroke="#212121" stroke-linecap="round" stroke-linejoin="round"/>
<path d="M8.6298 6.88672C8.48772 6.88672 8.35146 6.94316 8.251 7.04363C8.15053 7.14409 8.09409 7.28035 8.09409 7.42243V8.92886H6.58552C6.44344 8.92886 6.30718 8.9853 6.20671 9.08577C6.10625 9.18624 6.0498 9.3225 6.0498 9.46458V11.2056C6.0498 11.3477 6.10625 11.484 6.20671 11.5845C6.30718 11.6849 6.44344 11.7414 6.58552 11.7414H8.09302V13.2478C8.09302 13.3899 8.14946 13.5261 8.24993 13.6266C8.35039 13.7271 8.48665 13.7835 8.62873 13.7835H10.3698C10.4402 13.7835 10.5098 13.7696 10.5748 13.7427C10.6398 13.7158 10.6989 13.6763 10.7486 13.6266C10.7984 13.5769 10.8378 13.5178 10.8647 13.4528C10.8917 13.3878 10.9055 13.3181 10.9055 13.2478V11.7414H12.4119C12.554 11.7414 12.6903 11.6849 12.7908 11.5845C12.8912 11.484 12.9477 11.3477 12.9477 11.2056V9.46458C12.9477 9.3225 12.8912 9.18624 12.7908 9.08577C12.6903 8.9853 12.554 8.92886 12.4119 8.92886H10.9066V7.42243C10.9066 7.28035 10.8501 7.14409 10.7497 7.04363C10.6492 6.94316 10.513 6.88672 10.3709 6.88672H8.6298Z" stroke="#212121" stroke-linecap="round" stroke-linejoin="round"/>
</g>
<defs>
<clipPath id="clip0_11_4891">
<rect width="15" height="15" fill="white" transform="translate(2 2)"/>
</clipPath>
</defs>
</svg>
