<svg width="20" height="20" viewBox="0 0 20 20" fill="none" xmlns="http://www.w3.org/2000/svg">
<g clip-path="url(#clip0_11_4896)">
<path fill-rule="evenodd" clip-rule="evenodd" d="M6.82143 3.07143C6.82143 2.78727 6.70855 2.51475 6.50761 2.31381C6.30668 2.11288 6.03416 2 5.75 2C5.46584 2 5.19332 2.11288 4.99239 2.31381C4.79145 2.51475 4.67857 2.78727 4.67857 3.07143V4.14286H3.60714C3.1809 4.14286 2.77212 4.31218 2.47072 4.61358C2.16932 4.91498 2 5.32376 2 5.75V15.3929C2 15.8191 2.16932 16.2279 2.47072 16.5293C2.77212 16.8307 3.1809 17 3.60714 17H15.3929C15.8191 17 16.2279 16.8307 16.5293 16.5293C16.8307 16.2279 17 15.8191 17 15.3929V5.75C17 5.32376 16.8307 4.91498 16.5293 4.61358C16.2279 4.31218 15.8191 4.14286 15.3929 4.14286H14.3214V3.07143C14.3214 2.78727 14.2085 2.51475 14.0076 2.31381C13.8067 2.11288 13.5342 2 13.25 2C12.9658 2 12.6933 2.11288 12.4924 2.31381C12.2915 2.51475 12.1786 2.78727 12.1786 3.07143V4.14286H6.82143V3.07143ZM8.39643 7.81571C8.39643 7.58321 8.585 7.39571 8.8175 7.39571H10.1836C10.415 7.39571 10.6036 7.58321 10.6036 7.81571V9.48714H12.275C12.5075 9.48714 12.695 9.67571 12.695 9.90714V11.2732C12.6954 11.3285 12.6849 11.3834 12.6639 11.4346C12.643 11.4858 12.6121 11.5324 12.573 11.5715C12.5339 11.6107 12.4875 11.6417 12.4363 11.6628C12.3852 11.6839 12.3303 11.6946 12.275 11.6943H10.6036V13.3657C10.6039 13.4209 10.5932 13.4757 10.5722 13.5268C10.5512 13.5779 10.5202 13.6243 10.4812 13.6633C10.4421 13.7024 10.3957 13.7333 10.3446 13.7543C10.2935 13.7753 10.2388 13.786 10.1836 13.7857H8.81643C8.76119 13.786 8.70645 13.7753 8.65537 13.7543C8.60428 13.7333 8.55787 13.7024 8.51881 13.6633C8.47975 13.6243 8.44883 13.5779 8.42782 13.5268C8.40681 13.4757 8.39614 13.4209 8.39643 13.3657V11.6943H6.725C6.66967 11.6946 6.61484 11.6839 6.56369 11.6628C6.51253 11.6417 6.46607 11.6107 6.427 11.5715C6.38793 11.5324 6.35702 11.4858 6.33608 11.4346C6.31514 11.3834 6.30457 11.3285 6.305 11.2732V9.90714C6.305 9.67571 6.4925 9.48714 6.725 9.48714H8.39643V7.81571Z" fill="#212121"/>
</g>
<defs>
<clipPath id="clip0_11_4896">
<rect width="15" height="15" fill="white" transform="translate(2 2)"/>
</clipPath>
</defs>
</svg>
