<svg width="24" height="24" viewBox="0 0 24 24" fill="none" xmlns="http://www.w3.org/2000/svg">
<g clip-path="url(#clip0_944_9782)">
<path d="M11.8247 1.37518C11.712 1.26251 11.5592 1.19922 11.3999 1.19922C11.2406 1.19922 11.0878 1.26251 10.9751 1.37518C10.8624 1.48784 10.7991 1.64065 10.7991 1.79998C10.7991 1.95931 10.8624 2.11211 10.9751 2.22478L12.3515 3.59998H11.3999C9.61987 3.59998 7.87982 4.12782 6.39977 5.11675C4.91973 6.10568 3.76618 7.51129 3.08499 9.15583C2.4038 10.8004 2.22557 12.61 2.57284 14.3558C2.92011 16.1016 3.77727 17.7053 5.03595 18.9639C6.29462 20.2226 7.89826 21.0798 9.64409 21.427C11.3899 21.7743 13.1995 21.5961 14.8441 20.9149C16.4886 20.2337 17.8942 19.0802 18.8831 17.6001C19.8721 16.1201 20.3999 14.38 20.3999 12.6C20.3999 12.4408 20.3367 12.2882 20.2242 12.1757C20.1116 12.0632 19.959 12 19.7999 12C19.6408 12 19.4882 12.0632 19.3756 12.1757C19.2631 12.2882 19.1999 12.4408 19.1999 12.6C19.1999 14.1427 18.7424 15.6507 17.8854 16.9334C17.0283 18.2161 15.8101 19.2159 14.3848 19.8062C12.9596 20.3966 11.3913 20.5511 9.8782 20.2501C8.36515 19.9491 6.97532 19.2063 5.88447 18.1154C4.79362 17.0246 4.05075 15.6347 3.74978 14.1217C3.44882 12.6086 3.60328 11.0403 4.19365 9.61505C4.78401 8.18978 5.78376 6.97159 7.06646 6.11451C8.34916 5.25744 9.85721 4.79998 11.3999 4.79998H12.3515L10.9751 6.17518C10.9193 6.23096 10.8751 6.29719 10.8449 6.37008C10.8147 6.44296 10.7991 6.52108 10.7991 6.59998C10.7991 6.67887 10.8147 6.75699 10.8449 6.82988C10.8751 6.90276 10.9193 6.96899 10.9751 7.02478C11.0878 7.13744 11.2406 7.20074 11.3999 7.20074C11.4788 7.20074 11.5569 7.1852 11.6298 7.15501C11.7027 7.12481 11.7689 7.08056 11.8247 7.02478L14.2247 4.62478C14.2806 4.56904 14.3249 4.50283 14.3552 4.42994C14.3854 4.35704 14.401 4.2789 14.401 4.19998C14.401 4.12106 14.3854 4.04291 14.3552 3.97002C14.3249 3.89712 14.2806 3.83091 14.2247 3.77518L11.8247 1.37518ZM16.0163 8.56798C16.073 8.62266 16.1184 8.68798 16.1499 8.76021C16.1814 8.83244 16.1984 8.91016 16.1998 8.98895C16.2013 9.06773 16.1872 9.14602 16.1584 9.21936C16.1296 9.2927 16.0866 9.35965 16.0319 9.41638L11.4119 14.2164C11.3559 14.2744 11.2888 14.3206 11.2146 14.3522C11.1404 14.3837 11.0606 14.4 10.9799 14.4C10.8993 14.4 10.8194 14.3837 10.7452 14.3522C10.671 14.3206 10.6039 14.2744 10.5479 14.2164L8.56791 12.1584C8.46439 12.0426 8.4098 11.8912 8.41562 11.736C8.42144 11.5808 8.48722 11.4339 8.59912 11.3262C8.71102 11.2185 8.86032 11.1584 9.01563 11.1585C9.17095 11.1586 9.32016 11.2189 9.43191 11.3268L10.9799 12.9348L15.1679 8.58358C15.2226 8.52684 15.2879 8.48144 15.3601 8.44995C15.4324 8.41846 15.5101 8.40151 15.5889 8.40006C15.6677 8.39862 15.746 8.4127 15.8193 8.44151C15.8926 8.47032 15.9596 8.51329 16.0163 8.56798Z" fill="#888888"/>
</g>
<defs>
<clipPath id="clip0_944_9782">
<rect width="24" height="24" fill="white"/>
</clipPath>
</defs>
</svg>
