<svg width="24" height="24" viewBox="0 0 24 24" fill="none" xmlns="http://www.w3.org/2000/svg">
<g clip-path="url(#clip0_944_9783)">
<path d="M11.7359 0.864109C11.5653 0.705133 11.3396 0.618585 11.1065 0.622699C10.8733 0.626813 10.6509 0.721267 10.486 0.886163C10.3211 1.05106 10.2266 1.27352 10.2225 1.50668C10.2184 1.73984 10.3049 1.9655 10.4639 2.13611L11.9279 3.60011H11.3999C9.61987 3.60011 7.87982 4.12795 6.39977 5.11688C4.91973 6.10582 3.76618 7.51142 3.08499 9.15596C2.4038 10.8005 2.22557 12.6101 2.57284 14.3559C2.92011 16.1018 3.77727 17.7054 5.03595 18.9641C6.29462 20.2227 7.89826 21.0799 9.64409 21.4272C11.3899 21.7744 13.1995 21.5962 14.8441 20.915C16.4886 20.2338 17.8942 19.0803 18.8831 17.6002C19.8721 16.1202 20.3999 14.3801 20.3999 12.6001C20.3999 12.3614 20.3051 12.1325 20.1363 11.9637C19.9675 11.7949 19.7386 11.7001 19.4999 11.7001C19.2612 11.7001 19.0323 11.7949 18.8635 11.9637C18.6947 12.1325 18.5999 12.3614 18.5999 12.6001C18.5998 14.021 18.1793 15.4101 17.3914 16.5925C16.6034 17.7749 15.4832 18.6977 14.1719 19.2448C12.8605 19.7918 11.4166 19.9386 10.022 19.6667C8.62733 19.3947 7.34434 18.7162 6.33455 17.7166C5.32476 16.717 4.63332 15.4409 4.34729 14.0491C4.06127 12.6573 4.19345 11.212 4.72719 9.89513C5.26094 8.5783 6.17238 7.44883 7.34674 6.64895C8.52111 5.84907 9.90589 5.41455 11.3267 5.40011L10.4627 6.26411C10.2988 6.43393 10.2082 6.66131 10.2104 6.89729C10.2126 7.13327 10.3073 7.35896 10.4743 7.52574C10.6412 7.69253 10.867 7.78708 11.103 7.78902C11.3389 7.79096 11.5662 7.70013 11.7359 7.53611L14.4359 4.83611C14.6044 4.66736 14.6991 4.43861 14.6991 4.20011C14.6991 3.96161 14.6044 3.73286 14.4359 3.56411L11.7359 0.864109ZM16.2239 8.35211C16.3957 8.51766 16.4947 8.74463 16.4992 8.98314C16.5037 9.22166 16.4133 9.4522 16.2479 9.62411L11.6279 14.4241C11.544 14.5112 11.4433 14.5805 11.332 14.6278C11.2206 14.6751 11.1009 14.6995 10.9799 14.6995C10.8589 14.6995 10.7392 14.6751 10.6279 14.6278C10.5165 14.5805 10.4159 14.5112 10.3319 14.4241L8.35191 12.3673C8.26581 12.2831 8.19749 12.1824 8.15101 12.0713C8.10453 11.9602 8.08082 11.8409 8.0813 11.7204C8.08178 11.6 8.10643 11.4808 8.15379 11.3701C8.20115 11.2594 8.27026 11.1592 8.35702 11.0757C8.44378 10.9921 8.54643 10.9269 8.65888 10.8837C8.77134 10.8406 8.89131 10.8204 9.01169 10.8245C9.13207 10.8286 9.2504 10.8568 9.35969 10.9074C9.46897 10.958 9.56698 11.0301 9.64791 11.1193L10.9799 12.5017L14.9519 8.37611C15.1175 8.20435 15.3444 8.10533 15.5829 8.10083C15.8215 8.09633 16.052 8.18671 16.2239 8.35211Z" fill="#212121"/>
</g>
<defs>
<clipPath id="clip0_944_9783">
<rect width="24" height="24" fill="white"/>
</clipPath>
</defs>
</svg>
