<svg width="25" height="24" viewBox="0 0 25 24" fill="none" xmlns="http://www.w3.org/2000/svg">
<path d="M20.3269 4.16741C17.6869 2.36741 14.4269 3.20741 12.6669 5.26741C10.9069 3.20741 7.6469 2.35741 5.0069 4.16741C3.6069 5.12741 2.7269 6.74741 2.6669 8.45741C2.5269 12.3374 5.9669 15.4474 11.2169 20.2174L11.3169 20.3074C12.0769 20.9974 13.2469 20.9974 14.0069 20.2974L14.1169 20.1974C19.3669 15.4374 22.7969 12.3274 22.6669 8.44741C22.6069 6.74741 21.7269 5.12741 20.3269 4.16741ZM12.7669 18.7274L12.6669 18.8274L12.5669 18.7274C7.8069 14.4174 4.6669 11.5674 4.6669 8.67741C4.6669 6.67741 6.1669 5.17741 8.1669 5.17741C9.7069 5.17741 11.2069 6.16741 11.7369 7.53741H13.6069C14.1269 6.16741 15.6269 5.17741 17.1669 5.17741C19.1669 5.17741 20.6669 6.67741 20.6669 8.67741C20.6669 11.5674 17.5269 14.4174 12.7669 18.7274Z" fill="#888888"/>
</svg>
