<svg width="25" height="24" viewBox="0 0 25 24" fill="none" xmlns="http://www.w3.org/2000/svg">
<path d="M20.327 4.16741C17.687 2.36741 14.427 3.20741 12.667 5.26741C10.907 3.20741 7.64696 2.35741 5.00696 4.16741C3.60696 5.12741 2.72696 6.74741 2.66696 8.45741C2.52696 12.3374 5.96696 15.4474 11.217 20.2174L11.317 20.3074C12.077 20.9974 13.247 20.9974 14.007 20.2974L14.117 20.1974C19.367 15.4374 22.797 12.3274 22.667 8.44741C22.607 6.74741 21.727 5.12741 20.327 4.16741ZM12.767 18.7274L12.667 18.8274L12.567 18.7274C7.80696 14.4174 4.66696 11.5674 4.66696 8.67741C4.66696 6.67741 6.16696 5.17741 8.16696 5.17741C9.70696 5.17741 11.207 6.16741 11.737 7.53741H13.607C14.127 6.16741 15.627 5.17741 17.167 5.17741C19.167 5.17741 20.667 6.67741 20.667 8.67741C20.667 11.5674 17.527 14.4174 12.767 18.7274Z" fill="#212121"/>
</svg>
