<svg width="24" height="24" viewBox="0 0 24 24" fill="none" xmlns="http://www.w3.org/2000/svg">
<mask id="mask0_671_10735" style="mask-type:alpha" maskUnits="userSpaceOnUse" x="0" y="0" width="24" height="24">
<rect width="24" height="24" fill="#D9D9D9"/>
</mask>
<g mask="url(#mask0_671_10735)">
<path d="M6.29882 22C5.7131 22 5.21169 21.8042 4.79459 21.4125C4.3775 21.0208 4.16895 20.55 4.16895 20V6C4.16895 5.45 4.3775 4.97917 4.79459 4.5875C5.21169 4.19583 5.7131 4 6.29882 4H7.36375V2H9.49362V4H18.0131V2H20.143V4H21.2079C21.7936 4 22.295 4.19583 22.7121 4.5875C23.1292 4.97917 23.3378 5.45 23.3378 6V20C23.3378 20.55 23.1292 21.0208 22.7121 21.4125C22.295 21.8042 21.7936 22 21.2079 22H6.29882ZM6.29882 20H21.2079V10H6.29882V20ZM6.29882 8H21.2079V6H6.29882V8ZM13.7534 14C13.4516 14 13.1987 13.9042 12.9946 13.7125C12.7905 13.5208 12.6884 13.2833 12.6884 13C12.6884 12.7167 12.7905 12.4792 12.9946 12.2875C13.1987 12.0958 13.4516 12 13.7534 12C14.0551 12 14.308 12.0958 14.5121 12.2875C14.7162 12.4792 14.8183 12.7167 14.8183 13C14.8183 13.2833 14.7162 13.5208 14.5121 13.7125C14.308 13.9042 14.0551 14 13.7534 14ZM9.49362 14C9.19189 14 8.93897 13.9042 8.73485 13.7125C8.53074 13.5208 8.42869 13.2833 8.42869 13C8.42869 12.7167 8.53074 12.4792 8.73485 12.2875C8.93897 12.0958 9.19189 12 9.49362 12C9.79535 12 10.0483 12.0958 10.2524 12.2875C10.4565 12.4792 10.5586 12.7167 10.5586 13C10.5586 13.2833 10.4565 13.5208 10.2524 13.7125C10.0483 13.9042 9.79535 14 9.49362 14ZM18.0131 14C17.7114 14 17.4584 13.9042 17.2543 13.7125C17.0502 13.5208 16.9482 13.2833 16.9482 13C16.9482 12.7167 17.0502 12.4792 17.2543 12.2875C17.4584 12.0958 17.7114 12 18.0131 12C18.3148 12 18.5678 12.0958 18.7719 12.2875C18.976 12.4792 19.078 12.7167 19.078 13C19.078 13.2833 18.976 13.5208 18.7719 13.7125C18.5678 13.9042 18.3148 14 18.0131 14ZM13.7534 18C13.4516 18 13.1987 17.9042 12.9946 17.7125C12.7905 17.5208 12.6884 17.2833 12.6884 17C12.6884 16.7167 12.7905 16.4792 12.9946 16.2875C13.1987 16.0958 13.4516 16 13.7534 16C14.0551 16 14.308 16.0958 14.5121 16.2875C14.7162 16.4792 14.8183 16.7167 14.8183 17C14.8183 17.2833 14.7162 17.5208 14.5121 17.7125C14.308 17.9042 14.0551 18 13.7534 18ZM9.49362 18C9.19189 18 8.93897 17.9042 8.73485 17.7125C8.53074 17.5208 8.42869 17.2833 8.42869 17C8.42869 16.7167 8.53074 16.4792 8.73485 16.2875C8.93897 16.0958 9.19189 16 9.49362 16C9.79535 16 10.0483 16.0958 10.2524 16.2875C10.4565 16.4792 10.5586 16.7167 10.5586 17C10.5586 17.2833 10.4565 17.5208 10.2524 17.7125C10.0483 17.9042 9.79535 18 9.49362 18ZM18.0131 18C17.7114 18 17.4584 17.9042 17.2543 17.7125C17.0502 17.5208 16.9482 17.2833 16.9482 17C16.9482 16.7167 17.0502 16.4792 17.2543 16.2875C17.4584 16.0958 17.7114 16 18.0131 16C18.3148 16 18.5678 16.0958 18.7719 16.2875C18.976 16.4792 19.078 16.7167 19.078 17C19.078 17.2833 18.976 17.5208 18.7719 17.7125C18.5678 17.9042 18.3148 18 18.0131 18Z" fill="#3C3C3C"/>
</g>
</svg>
