<svg width="17" height="14" viewBox="0 0 17 14" fill="none" xmlns="http://www.w3.org/2000/svg">
<path d="M2.41775 14H13.5822C14.8526 14 15.5 13.2365 15.5 11.7242V4.03776C15.5 2.52543 14.8526 1.76927 13.5822 1.76927H11.8355C11.353 1.76927 11.2064 1.65181 10.9316 1.28474L10.443 0.624017C10.1376 0.220241 9.82614 0 9.19707 0H6.76018C6.13111 0 5.81963 0.220241 5.51425 0.624017L5.02565 1.28474C4.75081 1.64447 4.59813 1.76927 4.12174 1.76927H2.41775C1.14129 1.76927 0.5 2.52543 0.5 4.03776V11.7242C0.5 13.2365 1.14129 14 2.41775 14ZM2.42997 12.818C1.83143 12.818 1.48331 12.4289 1.48331 11.6654V4.10383C1.48331 3.34033 1.83143 2.95123 2.42997 2.95123H4.36604C4.91572 2.95123 5.21498 2.82643 5.52036 2.41531L5.99674 1.76927C6.34487 1.29942 6.52809 1.18196 7.06555 1.18196H8.89169C9.42915 1.18196 9.61238 1.29942 9.9605 1.76927L10.4369 2.41531C10.7423 2.82643 11.0415 2.95123 11.5912 2.95123H13.5639C14.1686 2.95123 14.5167 3.34033 14.5167 4.10383V11.6654C14.5167 12.4289 14.1686 12.818 13.5639 12.818H2.42997ZM8 11.7609C9.84446 11.7609 11.3286 9.98427 11.3286 7.74515C11.3286 5.51337 9.85057 3.73676 8 3.73676C6.14943 3.73676 4.66531 5.51337 4.66531 7.74515C4.66531 9.98427 6.14943 11.7609 8 11.7609ZM11.579 5.04352C11.579 5.55742 11.9332 5.9612 12.3485 5.9612C12.7577 5.95385 13.1059 5.55008 13.1059 5.04352C13.1059 4.55899 12.7577 4.13319 12.3485 4.13319C11.9332 4.13319 11.579 4.55899 11.579 5.04352ZM8 10.645C6.67467 10.645 5.58754 9.36025 5.58754 7.74515C5.58754 6.13739 6.66857 4.84531 8 4.84531C9.33143 4.84531 10.4064 6.13739 10.4064 7.74515C10.4064 9.36025 9.33143 10.645 8 10.645Z" fill="white"/>
</svg>
