<svg width="20" height="20" viewBox="0 0 20 20" fill="none" xmlns="http://www.w3.org/2000/svg">
<g clip-path="url(#clip0_11_4875)">
<path d="M11.6665 15.0005L11.6648 14.5838C11.5546 14.5842 11.4491 14.6283 11.3713 14.7064C11.2935 14.7845 11.2498 14.8903 11.2498 15.0005H11.6665ZM11.6665 15.0005L12.039 15.188C12.068 15.13 12.0832 15.0661 12.0832 15.0013L11.6665 15.0005ZM8.33317 15.0013H7.9165C7.91651 15.0661 7.93163 15.13 7.96067 15.188L8.33317 15.0013ZM8.33317 15.0013L8.74984 15.0005C8.74984 14.8903 8.70617 14.7845 8.62839 14.7064C8.55061 14.6283 8.44506 14.5842 8.33484 14.5838L8.33317 15.0013ZM17.0832 9.16797C17.0832 8.0063 17.0832 7.1038 17.0107 6.38714C16.9373 5.6638 16.7857 5.08464 16.4515 4.58464L15.7582 5.04797C15.9857 5.38797 16.1148 5.81464 16.1815 6.4713C16.249 7.1363 16.2498 7.9888 16.2498 9.16797H17.0832ZM16.4515 13.7513C16.7848 13.2513 16.9373 12.6721 17.0107 11.9488C17.084 11.2321 17.0832 10.3296 17.0832 9.16797H16.2498C16.2498 10.3471 16.2498 11.1996 16.1815 11.8646C16.1148 12.5213 15.9857 12.948 15.7582 13.288L16.4515 13.7513ZM15.4165 14.7863C15.8261 14.5126 16.1778 14.1609 16.4515 13.7513L15.7582 13.288C15.5457 13.6071 15.2723 13.8796 14.954 14.093L15.4165 14.7863ZM11.6682 15.4171C12.5657 15.413 13.2873 15.3955 13.8815 15.3138C14.4823 15.2305 14.9798 15.078 15.4165 14.7863L14.954 14.093C14.6557 14.2921 14.2932 14.4155 13.7673 14.488C13.2357 14.5613 12.5657 14.5796 11.6648 14.5838L11.6682 15.4171ZM11.1182 17.0305L12.039 15.188L11.294 14.8146L10.3723 16.658L11.1182 17.0305ZM8.8815 17.0305C9.34234 17.9513 10.6565 17.9513 11.1182 17.0305L10.3723 16.658C10.3377 16.7271 10.2845 16.7852 10.2187 16.8258C10.1529 16.8664 10.0772 16.8879 9.99984 16.8879C9.92253 16.8879 9.84674 16.8664 9.78095 16.8258C9.71517 16.7852 9.66198 16.7271 9.62734 16.658L8.8815 17.0305ZM7.96067 15.188L8.8815 17.0305L9.62734 16.658L8.70567 14.8155L7.96067 15.188ZM4.58317 14.7863C5.01984 15.078 5.5165 15.2305 6.11817 15.3138C6.71234 15.3955 7.43484 15.413 8.3315 15.4171L8.33484 14.5838C7.434 14.5796 6.764 14.5621 6.23234 14.488C5.70734 14.4155 5.344 14.2921 5.0465 14.093L4.58317 14.7863ZM3.54817 13.7513C3.82184 14.1609 4.17354 14.5126 4.58317 14.7863L5.0465 14.093C4.7279 13.8801 4.45436 13.6066 4.2415 13.288L3.54817 13.7513ZM2.9165 9.16797C2.9165 10.3296 2.9165 11.2321 2.989 11.9488C3.06234 12.6721 3.214 13.2513 3.54817 13.7513L4.2415 13.288C4.014 12.948 3.88484 12.5213 3.81817 11.8638C3.74984 11.2005 3.74984 10.348 3.74984 9.16797H2.9165ZM3.54817 4.58464C3.21484 5.08464 3.06234 5.6638 2.989 6.38714C2.91567 7.1038 2.9165 8.0063 2.9165 9.16797H3.74984C3.74984 7.9888 3.74984 7.1363 3.81817 6.4713C3.88484 5.81464 4.014 5.38797 4.2415 5.04797L3.54817 4.58464ZM4.58317 3.54964C4.17354 3.8233 3.82184 4.175 3.54817 4.58464L4.2415 5.04797C4.45436 4.72936 4.7279 4.45582 5.0465 4.24297L4.58317 3.54964ZM9.16651 2.91797C8.00484 2.91797 7.10234 2.91797 6.38567 2.99047C5.66234 3.0638 5.08317 3.21547 4.58317 3.54964L5.0465 4.24297C5.3865 4.01547 5.81317 3.8863 6.46984 3.81964C7.13484 3.7513 7.98734 3.7513 9.16651 3.7513V2.91797ZM10.8332 2.91797H9.16651V3.7513H10.8332V2.91797ZM15.4165 3.54964C14.9165 3.2163 14.3373 3.0638 13.614 2.99047C12.8973 2.91714 11.9948 2.91797 10.8332 2.91797V3.7513C12.0123 3.7513 12.8648 3.7513 13.529 3.81964C14.1873 3.8863 14.6123 4.01547 14.954 4.24297L15.4165 3.54964ZM16.4515 4.58464C16.1778 4.175 15.8261 3.8233 15.4165 3.54964L14.954 4.24297C15.2723 4.45547 15.5457 4.7288 15.7582 5.04797L16.4515 4.58464Z" fill="#212121"/>
<path d="M13.3333 9.9987C13.7936 9.9987 14.1667 9.6256 14.1667 9.16536C14.1667 8.70513 13.7936 8.33203 13.3333 8.33203C12.8731 8.33203 12.5 8.70513 12.5 9.16536C12.5 9.6256 12.8731 9.9987 13.3333 9.9987Z" fill="#212121"/>
<path d="M9.99984 9.9987C10.4601 9.9987 10.8332 9.6256 10.8332 9.16536C10.8332 8.70513 10.4601 8.33203 9.99984 8.33203C9.5396 8.33203 9.1665 8.70513 9.1665 9.16536C9.1665 9.6256 9.5396 9.9987 9.99984 9.9987Z" fill="#212121"/>
<path d="M6.66683 9.9987C7.12707 9.9987 7.50016 9.6256 7.50016 9.16536C7.50016 8.70513 7.12707 8.33203 6.66683 8.33203C6.20659 8.33203 5.8335 8.70513 5.8335 9.16536C5.8335 9.6256 6.20659 9.9987 6.66683 9.9987Z" fill="#212121"/>
</g>
<defs>
<clipPath id="clip0_11_4875">
<rect width="20" height="20" fill="white"/>
</clipPath>
</defs>
</svg>
