<svg width="20" height="20" viewBox="0 0 20 20" fill="none" xmlns="http://www.w3.org/2000/svg">
<g clip-path="url(#clip0_11_4886)">
<path fill-rule="evenodd" clip-rule="evenodd" d="M16.6668 9.16536C16.6668 6.82453 16.6668 5.65453 16.1052 4.8137C15.8619 4.44958 15.5493 4.13696 15.1852 3.8937C14.3443 3.33203 13.1752 3.33203 10.8335 3.33203H9.16683C6.826 3.33203 5.656 3.33203 4.81516 3.8937C4.45104 4.13696 4.13842 4.44958 3.89516 4.8137C3.3335 5.65453 3.3335 6.8237 3.3335 9.16536C3.3335 11.507 3.3335 12.6762 3.89516 13.517C4.13842 13.8812 4.45104 14.1938 4.81516 14.437C5.54933 14.9279 6.53516 14.9895 8.3335 14.9979L9.25516 16.8412C9.32444 16.9794 9.43082 17.0957 9.56239 17.1769C9.69396 17.2581 9.84554 17.3011 10.0002 17.3011C10.1548 17.3011 10.3064 17.2581 10.4379 17.1769C10.5695 17.0957 10.6759 16.9794 10.7452 16.8412L11.6668 14.9987C13.4652 14.9904 14.4502 14.9279 15.1852 14.437C15.5493 14.1938 15.8619 13.8812 16.1052 13.517C16.6668 12.6762 16.6668 11.507 16.6668 9.16536ZM6.66683 9.9987C6.88784 9.9987 7.0998 9.9109 7.25608 9.75462C7.41237 9.59834 7.50016 9.38638 7.50016 9.16536C7.50016 8.94435 7.41237 8.73239 7.25608 8.57611C7.0998 8.41983 6.88784 8.33203 6.66683 8.33203C6.44582 8.33203 6.23385 8.41983 6.07757 8.57611C5.92129 8.73239 5.8335 8.94435 5.8335 9.16536C5.8335 9.38638 5.92129 9.59834 6.07757 9.75462C6.23385 9.9109 6.44582 9.9987 6.66683 9.9987ZM10.8335 9.16536C10.8335 9.38638 10.7457 9.59834 10.5894 9.75462C10.4331 9.9109 10.2212 9.9987 10.0002 9.9987C9.77915 9.9987 9.56719 9.9109 9.41091 9.75462C9.25463 9.59834 9.16683 9.38638 9.16683 9.16536C9.16683 8.94435 9.25463 8.73239 9.41091 8.57611C9.56719 8.41983 9.77915 8.33203 10.0002 8.33203C10.2212 8.33203 10.4331 8.41983 10.5894 8.57611C10.7457 8.73239 10.8335 8.94435 10.8335 9.16536ZM14.1668 9.16536C14.1668 9.38638 14.079 9.59834 13.9228 9.75462C13.7665 9.9109 13.5545 9.9987 13.3335 9.9987C13.1125 9.9987 12.9005 9.9109 12.7442 9.75462C12.588 9.59834 12.5002 9.38638 12.5002 9.16536C12.5002 8.94435 12.588 8.73239 12.7442 8.57611C12.9005 8.41983 13.1125 8.33203 13.3335 8.33203C13.5545 8.33203 13.7665 8.41983 13.9228 8.57611C14.079 8.73239 14.1668 8.94435 14.1668 9.16536Z" fill="#212121"/>
</g>
<defs>
<clipPath id="clip0_11_4886">
<rect width="20" height="20" fill="white"/>
</clipPath>
</defs>
</svg>
