<svg width="24" height="24" viewBox="0 0 24 24" fill="none" xmlns="http://www.w3.org/2000/svg">
<path d="M7 8V16C7 17.3261 7.52678 18.5979 8.46447 19.5355C9.40215 20.4732 10.6739 21 12 21C13.3261 21 14.5979 20.4732 15.5355 19.5355C16.4732 18.5979 17 17.3261 17 16V6.5C17 5.57174 16.6313 4.6815 15.9749 4.02513C15.3185 3.36875 14.4283 3 13.5 3C12.5717 3 11.6815 3.36875 11.0251 4.02513C10.3687 4.6815 10 5.57174 10 6.5V15C10 15.5304 10.2107 16.0391 10.5858 16.4142C10.9609 16.7893 11.4696 17 12 17C12.5304 17 13.0391 16.7893 13.4142 16.4142C13.7893 16.0391 14 15.5304 14 15V8" stroke="#3C3C3C" stroke-width="2" stroke-linecap="round" stroke-linejoin="round"/>
</svg>
