<svg width="20" height="20" viewBox="0 0 20 20" fill="none" xmlns="http://www.w3.org/2000/svg">
<path d="M5.37037 17.5C6.26323 17.5 8.08862 16.5263 9.43122 15.4952C14.041 15.6313 17.5 12.7601 17.5 9.00835C17.5 5.40692 14.1667 2.5 10 2.5C5.83333 2.5 2.5 5.40692 2.5 9.00835C2.5 11.3568 3.88889 13.4403 5.97884 14.4857C5.68122 15.1158 5.12566 15.9606 4.82804 16.3831C4.47751 16.8771 4.68915 17.5 5.37037 17.5ZM6.06481 16.3115C6.0119 16.3329 5.99206 16.29 6.02513 16.247C6.3955 15.753 6.9246 15.0084 7.14947 14.543C7.33466 14.1778 7.28836 13.8484 6.86508 13.6337C4.78836 12.5883 3.59788 10.92 3.59788 9.00835C3.59788 6.07995 6.43519 3.68854 10 3.68854C13.5714 3.68854 16.4087 6.07995 16.4087 9.00835C16.4087 11.9439 13.5714 14.3353 10 14.3353C9.86773 14.3353 9.6627 14.3282 9.39815 14.321C9.12037 14.3138 8.90873 14.4141 8.65741 14.6289C7.84392 15.2661 6.66667 16.0465 6.06481 16.3115Z" fill="#212121"/>
</svg>
