<svg width="24" height="24" viewBox="0 0 24 24" fill="none" xmlns="http://www.w3.org/2000/svg">
<path fill-rule="evenodd" clip-rule="evenodd" d="M8.32468 4.66309L8.35218 4.54309C8.40468 4.32009 8.49068 3.99209 8.66818 3.66909C8.84918 3.34009 9.12968 3.00659 9.56968 2.78709C10.0082 2.56859 10.5577 2.48709 11.2372 2.57709C11.9872 2.67709 13.4937 2.92509 14.8247 3.60209C16.1632 4.28309 17.4172 5.45459 17.4172 7.40559C17.4172 8.41359 17.0272 9.49509 16.6492 10.2001C16.4677 10.5391 16.2522 10.8631 16.0362 11.0376C15.9867 11.0776 15.9162 11.1276 15.8287 11.1626C15.5887 11.9514 15.1109 12.6468 14.4607 13.1537C13.8104 13.6607 13.0195 13.9544 12.196 13.9948C11.3725 14.0352 10.5566 13.8202 9.85994 13.3793C9.16323 12.9384 8.61971 12.2931 8.30368 11.5316L8.29168 11.5336L8.11418 11.3181L8.11368 11.3171L8.11268 11.3161L8.11018 11.3126L8.10168 11.3026C8.05892 11.2493 8.01774 11.1948 7.97818 11.1391C7.87046 10.9892 7.76871 10.835 7.67318 10.6771C7.43818 10.2881 7.15468 9.73409 6.97318 9.08759C6.79218 8.44109 6.70918 7.68309 6.89918 6.90109C7.08418 6.14009 7.52068 5.39109 8.31118 4.72209L8.32468 4.66309ZM9.16468 10.9821C9.38153 11.6057 9.79796 12.1404 10.3495 12.5034C10.901 12.8664 11.5568 13.0374 12.2153 12.99C12.8739 12.9426 13.4984 12.6793 13.9922 12.241C14.486 11.8027 14.8214 11.2138 14.9467 10.5656L15.0032 10.5846C15.001 10.5563 15 10.528 15.0002 10.4996C15.0002 9.67209 14.8852 9.09459 14.7782 8.73459C14.7572 8.66455 14.734 8.59518 14.7087 8.52659L14.6882 8.52759H14.6682C14.2943 8.53561 13.9205 8.50714 13.5522 8.44259C12.6937 8.29759 11.5312 7.93559 10.1622 7.09709C10.1322 7.16409 10.1022 7.23959 10.0722 7.32359C9.97418 7.60109 9.89368 7.93059 9.82418 8.27859C9.76268 8.58509 9.71218 8.89359 9.66418 9.18259L9.64568 9.29659C9.59418 9.60659 9.54268 9.91109 9.48268 10.1316C9.37768 10.5146 9.27068 10.7866 9.16468 10.9816M8.46468 10.0501C8.23907 9.66233 8.06175 9.24842 7.93668 8.81759C7.78718 8.28459 7.73218 7.70759 7.87118 7.13709C8.00618 6.58209 8.33268 5.99859 9.00418 5.44559C9.12518 5.36359 9.18018 5.25359 9.19518 5.22409V5.22359C9.2212 5.16943 9.24228 5.11303 9.25818 5.05509C9.27418 4.99809 9.29168 4.92009 9.30818 4.85009L9.32568 4.77159C9.37318 4.57009 9.43468 4.35059 9.54468 4.15009C9.65168 3.95609 9.79818 3.79009 10.0162 3.68159C10.2352 3.57209 10.5742 3.49709 11.1052 3.56809C11.8317 3.66459 13.1982 3.89609 14.3712 4.49309C15.5362 5.08559 16.4172 5.98259 16.4172 7.40509C16.4172 8.06009 16.1972 8.80509 15.9322 9.39259C15.8822 9.00959 15.8102 8.69659 15.7362 8.44859C15.684 8.27152 15.6197 8.09827 15.5437 7.93009C15.5145 7.86798 15.4828 7.80709 15.4487 7.74759L15.4402 7.73409L15.4372 7.72909L15.4357 7.72659L15.4347 7.72509L15.2497 7.43809L14.9187 7.50459L14.9117 7.50609L14.8632 7.51259C14.7888 7.52094 14.714 7.52594 14.6392 7.52759C14.3309 7.5335 14.0228 7.50939 13.7192 7.45559C12.9127 7.31959 11.7277 6.94909 10.2882 5.99059L9.93818 5.75709L9.64868 6.06209C9.41018 6.31309 9.24818 6.65559 9.12968 6.98909C9.00868 7.33159 8.91718 7.71409 8.84368 8.08109C8.7827 8.3934 8.72736 8.70678 8.67768 9.02109L8.65868 9.13309C8.60518 9.45859 8.56168 9.70709 8.51768 9.86809C8.49968 9.93442 8.48201 9.99509 8.46468 10.0501Z" fill="#888888"/>
<path fill-rule="evenodd" clip-rule="evenodd" d="M8.957 14.4276C8.851 14.2166 8.7205 13.9561 8.5 14.0066C5.798 14.6216 3 16.3971 3 18.2851V21.0001H21V18.2851C21 16.7981 19.264 15.3806 17.2065 14.5451L17.204 14.5401L17.197 14.5266L17.1805 14.5346C16.634 14.3146 16.065 14.1346 15.5 14.0066C15.2485 13.9491 14.9885 14.2951 14.875 14.5116H9L8.957 14.4276ZM15.7015 15.0876C15.9202 15.1483 16.137 15.2161 16.352 15.2911C16.358 15.4621 16.345 15.6641 16.317 15.8701C16.2887 16.0834 16.2432 16.2941 16.181 16.5001H15.5C15.4072 16.5002 15.3162 16.526 15.2372 16.5749C15.1583 16.6237 15.0945 16.6936 15.053 16.7766L14.553 17.7766C14.5182 17.846 14.5001 17.9225 14.5 18.0001V19.0001C14.5 19.1327 14.5527 19.2599 14.6464 19.3537C14.7402 19.4474 14.8674 19.5001 15 19.5001H16V18.5001H15.5V18.1181L15.809 17.5001H17.191L17.5 18.1181V18.5001H17V19.5001H18C18.1326 19.5001 18.2598 19.4474 18.3536 19.3537C18.4473 19.2599 18.5 19.1327 18.5 19.0001V18.0001C18.4999 17.9225 18.4818 17.846 18.447 17.7766L17.947 16.7766C17.9055 16.6936 17.8417 16.6237 17.7628 16.5749C17.6838 16.526 17.5928 16.5002 17.5 16.5001H17.217C17.2781 16.2354 17.3196 15.9665 17.341 15.6956C17.8285 15.9261 18.2815 16.1906 18.674 16.4766C19.635 17.1776 20 17.8336 20 18.2851V20.0001H4V18.2851C4 17.8336 4.365 17.1776 5.326 16.4766C5.809 16.1241 6.3855 15.8051 7.0035 15.5411C7.02076 15.9395 7.0847 16.3346 7.194 16.7181L7.198 16.7321C6.89908 16.9212 6.67661 17.2099 6.56987 17.5471C6.46313 17.8843 6.47899 18.2484 6.61466 18.5751C6.75033 18.9017 6.99707 19.1699 7.3113 19.3323C7.62554 19.4947 7.98705 19.5408 8.33198 19.4625C8.67692 19.3842 8.98309 19.1865 9.19642 18.9044C9.40975 18.6223 9.51651 18.2738 9.49785 17.9206C9.47919 17.5674 9.33631 17.2321 9.09443 16.974C8.85256 16.7159 8.52727 16.5516 8.176 16.5101L8.154 16.4381C8.10114 16.2519 8.06187 16.062 8.0365 15.8701C8.00847 15.6763 7.99676 15.4804 8.0015 15.2846C8.00317 15.2426 8.00567 15.2053 8.009 15.1726C8.069 15.1539 8.129 15.1361 8.189 15.1191L8.3965 15.5121H15.4785L15.7015 15.0876ZM8 18.5081C8.269 18.5081 8.5 18.2881 8.5 18.0006C8.5 17.7136 8.269 17.4931 8 17.4931C7.731 17.4931 7.5 17.7131 7.5 18.0006C7.5 18.2876 7.731 18.5081 8 18.5081Z" fill="#888888"/>
</svg>
