<svg width="20" height="20" viewBox="0 0 20 20" fill="none" xmlns="http://www.w3.org/2000/svg">
<path d="M4.16683 15.8335H5.08183L13.9968 6.91851L13.0818 6.00351L4.16683 14.9185V15.8335ZM3.3335 16.6668V14.5668L14.3168 3.57351C14.4029 3.4974 14.4974 3.43851 14.6002 3.39684C14.7029 3.35518 14.8104 3.33406 14.9227 3.33351C15.0349 3.33295 15.1432 3.35073 15.2477 3.38684C15.3532 3.42184 15.4504 3.48518 15.5393 3.57684L16.4285 4.47184C16.5202 4.56018 16.5829 4.6574 16.6168 4.76351C16.6502 4.86906 16.6668 4.97462 16.6668 5.08018C16.6668 5.19351 16.6479 5.30184 16.6102 5.40518C16.5718 5.50795 16.5113 5.60212 16.4285 5.68768L5.43266 16.6668H3.3335ZM13.5318 6.46851L13.0818 6.00351L13.9968 6.91851L13.5318 6.46851Z" fill="#555555"/>
</svg>
