<svg width="20" height="20" viewBox="0 0 20 20" fill="none" xmlns="http://www.w3.org/2000/svg">
<g clip-path="url(#clip0_453_21765)">
<path d="M18.6667 10.3329H7.53604M3.60721 10.3329H2M3.60721 10.3329C3.60721 9.78457 3.81412 9.25873 4.18244 8.87104C4.55075 8.48334 5.0503 8.26553 5.57117 8.26553C6.09205 8.26553 6.59159 8.48334 6.9599 8.87104C7.32822 9.25873 7.53513 9.78457 7.53513 10.3329C7.53513 10.8811 7.32822 11.407 6.9599 11.7947C6.59159 12.1824 6.09205 12.4002 5.57117 12.4002C5.0503 12.4002 4.55075 12.1824 4.18244 11.7947C3.81412 11.407 3.60721 10.8811 3.60721 10.3329ZM18.6667 16.5984H13.4883M13.4883 16.5984C13.4883 17.1468 13.2809 17.6732 12.9125 18.061C12.5441 18.4488 12.0444 18.6667 11.5234 18.6667C11.0025 18.6667 10.503 18.4479 10.1347 18.0602C9.76638 17.6725 9.55946 17.1467 9.55946 16.5984M13.4883 16.5984C13.4883 16.05 13.2809 15.5245 12.9125 15.1367C12.5441 14.7489 12.0444 14.5311 11.5234 14.5311C11.0025 14.5311 10.503 14.7489 10.1347 15.1366C9.76638 15.5243 9.55946 16.0501 9.55946 16.5984M9.55946 16.5984H2M18.6667 4.06733H15.8694M11.9405 4.06733H2M11.9405 4.06733C11.9405 3.51904 12.1475 2.99321 12.5158 2.60551C12.8841 2.21781 13.3836 2 13.9045 2C14.1624 2 14.4178 2.05347 14.6561 2.15737C14.8944 2.26126 15.1109 2.41354 15.2932 2.60551C15.4756 2.79748 15.6203 3.02538 15.719 3.2762C15.8177 3.52702 15.8685 3.79584 15.8685 4.06733C15.8685 4.33882 15.8177 4.60764 15.719 4.85846C15.6203 5.10928 15.4756 5.33718 15.2932 5.52915C15.1109 5.72112 14.8944 5.8734 14.6561 5.97729C14.4178 6.08119 14.1624 6.13466 13.9045 6.13466C13.3836 6.13466 12.8841 5.91685 12.5158 5.52915C12.1475 5.14145 11.9405 4.61562 11.9405 4.06733Z" stroke="#5E5E5E" stroke-width="1.5" stroke-miterlimit="10" stroke-linecap="round"/>
</g>
<defs>
<clipPath id="clip0_453_21765">
<rect width="20" height="20" fill="white"/>
</clipPath>
</defs>
</svg>
