<svg width="13" height="12" viewBox="0 0 13 12" fill="none" xmlns="http://www.w3.org/2000/svg">
<path d="M6.25 11.4688L5.34375 10.6563C4.29167 9.70833 3.42188 8.89062 2.73438 8.20312C2.04688 7.51562 1.5 6.89844 1.09375 6.35156C0.6875 5.80469 0.403646 5.30208 0.242188 4.84375C0.0807292 4.38542 0 3.91667 0 3.4375C0 2.45833 0.328125 1.64063 0.984375 0.984375C1.64063 0.328125 2.45833 0 3.4375 0C3.97917 0 4.49479 0.114583 4.98438 0.34375C5.47396 0.572917 5.89583 0.895833 6.25 1.3125C6.60417 0.895833 7.02604 0.572917 7.51563 0.34375C8.00521 0.114583 8.52083 0 9.0625 0C10.0417 0 10.8594 0.328125 11.5156 0.984375C12.1719 1.64063 12.5 2.45833 12.5 3.4375C12.5 3.91667 12.4193 4.38542 12.2578 4.84375C12.0964 5.30208 11.8125 5.80469 11.4062 6.35156C11 6.89844 10.4531 7.51562 9.76562 8.20312C9.07812 8.89062 8.20833 9.70833 7.15625 10.6563L6.25 11.4688ZM6.25 9.78125C7.25 8.88542 8.07292 8.11719 8.71875 7.47656C9.36458 6.83594 9.875 6.27865 10.25 5.80469C10.625 5.33073 10.8854 4.90885 11.0312 4.53906C11.1771 4.16927 11.25 3.80208 11.25 3.4375C11.25 2.8125 11.0417 2.29167 10.625 1.875C10.2083 1.45833 9.6875 1.25 9.0625 1.25C8.57292 1.25 8.11979 1.38802 7.70312 1.66406C7.28646 1.9401 7 2.29167 6.84375 2.71875H5.65625C5.5 2.29167 5.21354 1.9401 4.79688 1.66406C4.38021 1.38802 3.92708 1.25 3.4375 1.25C2.8125 1.25 2.29167 1.45833 1.875 1.875C1.45833 2.29167 1.25 2.8125 1.25 3.4375C1.25 3.80208 1.32292 4.16927 1.46875 4.53906C1.61458 4.90885 1.875 5.33073 2.25 5.80469C2.625 6.27865 3.13542 6.83594 3.78125 7.47656C4.42708 8.11719 5.25 8.88542 6.25 9.78125Z" fill="#3E7DDC"/>
</svg>
