<svg width="24" height="24" viewBox="0 0 24 24" fill="none" xmlns="http://www.w3.org/2000/svg">
<rect width="24" height="24" fill="white"/>
<path fill-rule="evenodd" clip-rule="evenodd" d="M8.37771 14.8679C8.62626 14.8068 8.99405 15.163 8.99405 15.163C8.99405 15.163 11.6672 16.8298 11.6744 16.8298C12.0104 16.8299 14.8021 15.163 14.8021 15.163C14.8021 15.163 15.1699 14.8068 15.4185 14.8679C18.0899 15.5244 20.7962 16.863 20.7962 18.8768V22.2676H3V18.8768C3 16.863 5.70626 15.5244 8.37771 14.8679ZM5.96603 19.3017C5.96603 19.0287 6.18735 18.8074 6.46037 18.8074H8.93206C9.20509 18.8074 9.4264 19.0287 9.4264 19.3017C9.4264 19.5747 9.20509 19.796 8.93206 19.796H6.46037C6.18735 19.796 5.96603 19.5747 5.96603 19.3017ZM16.4448 17.3986C16.414 17.2996 16.2803 17.2996 16.2496 17.3986L15.9698 18.3006C15.9561 18.3449 15.9166 18.3749 15.8722 18.3749H14.9669C14.8675 18.3749 14.8262 18.5082 14.9066 18.5694L15.639 19.1269C15.675 19.1543 15.69 19.2028 15.6763 19.2471L15.3965 20.1491C15.3658 20.2482 15.474 20.3306 15.5545 20.2694L16.2868 19.7119C16.3228 19.6845 16.3715 19.6845 16.4075 19.7119L17.1398 20.2694C17.2202 20.3306 17.3285 20.2482 17.2978 20.1491L17.018 19.2471C17.0043 19.2028 17.0193 19.1543 17.0553 19.1269L17.7876 18.5694C17.8681 18.5082 17.8267 18.3749 17.7273 18.3749H16.8221C16.7777 18.3749 16.7382 18.3449 16.7245 18.3006L16.4448 17.3986Z" fill="#212121"/>
<path fill-rule="evenodd" clip-rule="evenodd" d="M7.44922 9.41514V7.93213H8.4379V9.41514C8.4379 11.3263 9.98715 12.8755 11.8983 12.8755C13.8094 12.8755 15.3586 11.3263 15.3586 9.41514V7.93213H16.3473V9.41514C16.3473 11.8723 14.3554 13.8642 11.8983 13.8642C9.44111 13.8642 7.44922 11.8723 7.44922 9.41514Z" fill="#212121"/>
<path fill-rule="evenodd" clip-rule="evenodd" d="M6.96516 7.64048C6.9876 7.52292 7.09522 7.4375 7.22083 7.4375H16.5751C16.7007 7.4375 16.8083 7.52292 16.8308 7.64048L16.8309 7.64107L16.831 7.64166L16.8313 7.6431L16.8319 7.64646L16.8333 7.65545C16.8343 7.66242 16.8355 7.67137 16.8367 7.6821C16.8389 7.7036 16.841 7.73247 16.8413 7.76762C16.8419 7.83796 16.8354 7.93421 16.8088 8.04756C16.7549 8.27669 16.6205 8.56795 16.3128 8.85101C15.7027 9.41218 14.4493 9.90919 11.898 9.90919C9.34658 9.90919 8.09319 9.41218 7.48312 8.85101C7.1754 8.56795 7.04104 8.27669 6.98715 8.04756C6.96051 7.93421 6.95403 7.83796 6.95463 7.76762C6.95492 7.73247 6.957 7.7036 6.95927 7.6821C6.96041 7.67137 6.9616 7.66242 6.96263 7.65545L6.96407 7.64646L6.96466 7.6431L6.96491 7.64166L6.96506 7.64107L6.96516 7.64048Z" fill="#212121"/>
<path fill-rule="evenodd" clip-rule="evenodd" d="M6.80046 6.44905C6.76289 6.38987 6.72458 6.33041 6.68607 6.27049C6.33603 5.72677 5.96582 5.15184 5.96582 4.51953C5.96582 4.12366 6.22302 3.79033 6.56348 3.52675C7.82898 2.54704 11.8979 2 11.8979 2C11.8979 2 15.9668 2.54704 17.2323 3.52675C17.5727 3.79033 17.8299 4.12366 17.8299 4.51953C17.8299 5.24043 17.4217 5.86291 17.0344 6.44905H6.80046ZM13.1337 4.14213C13.1337 4.14213 12.2275 3.81258 11.8979 3.48302C11.5683 3.81258 10.662 4.14213 10.662 4.14213C10.662 4.14213 10.9092 5.95471 11.8979 5.95471C12.8866 5.95471 13.1337 4.14213 13.1337 4.14213Z" fill="#212121"/>
</svg>
