<svg width="24" height="24" viewBox="0 0 24 24" fill="none" xmlns="http://www.w3.org/2000/svg">
<rect width="24" height="24" fill="white"/>
<path fill-rule="evenodd" clip-rule="evenodd" d="M8.9929 15.1669C8.9929 15.1669 8.62518 14.8107 8.37667 14.8718C5.70573 15.5282 3 16.8665 3 18.8799V21.2816V22.2701H3.98849H19.8043H20.7928V21.2816V18.8799C20.7928 16.8665 18.087 15.5282 15.4161 14.8718C15.1676 14.8107 14.7999 15.1669 14.7999 15.1669C14.7999 15.1669 12.0086 16.8334 11.6727 16.8333C11.6655 16.8333 8.9929 15.1669 8.9929 15.1669ZM15.185 15.812L14.7999 15.1669C14.9917 15.4883 15.1109 15.6879 15.185 15.812ZM15.185 15.812C15.1901 15.8204 15.1949 15.8285 15.1995 15.8362L15.185 15.812ZM15.1995 15.8362C15.3064 16.0153 15.3066 16.0157 15.3065 16.0157L15.3059 16.016L15.3042 16.017L15.2979 16.0208L15.2737 16.0352L15.1828 16.0891C15.1047 16.1354 14.9929 16.2013 14.8578 16.2804C14.5881 16.4382 14.2236 16.6495 13.8473 16.8615C13.4733 17.0721 13.0778 17.2889 12.7491 17.4551C12.5863 17.5374 12.4261 17.6144 12.2863 17.6731C12.2171 17.7022 12.1387 17.7328 12.0591 17.7578C12.0041 17.7751 11.8527 17.8219 11.6726 17.8218C11.5454 17.8136 11.3743 17.7758 11.3288 17.7601C11.3058 17.7512 11.2691 17.7357 11.2554 17.7295C11.2312 17.7182 11.2126 17.7083 11.2069 17.7053C11.1923 17.6975 11.1809 17.6909 11.1775 17.689C11.1685 17.6838 11.1604 17.679 11.1565 17.6767C11.1473 17.6711 11.1364 17.6645 11.1259 17.658C11.1038 17.6446 11.0732 17.6257 11.0359 17.6027C10.9612 17.5565 10.8554 17.4909 10.7294 17.4127C10.4774 17.2562 10.1422 17.0476 9.80761 16.8392C9.4729 16.6308 9.1385 16.4224 8.88777 16.2662L8.5848 16.0773L8.49994 16.0244L8.47755 16.0105L8.47182 16.0069L8.47038 16.006L8.46989 16.0057L8.38068 15.9501L8.33234 15.9033C7.15836 16.2141 6.0475 16.652 5.2321 17.1914C4.33081 17.7876 3.98849 18.3653 3.98849 18.8799V21.2816H19.8043V18.8799C19.8043 18.3653 19.462 17.7876 18.5607 17.1914C17.7452 16.652 16.6344 16.2141 15.4604 15.9033L15.4052 15.9568L15.3065 16.0157L15.1995 15.8362Z" fill="#888888"/>
<path d="M5.96582 19.3043C5.96582 19.0313 6.18709 18.8101 6.46006 18.8101H8.93128C9.20425 18.8101 9.42552 19.0313 9.42552 19.3043C9.42552 19.5772 9.20425 19.7985 8.93128 19.7985H6.46006C6.18709 19.7985 5.96582 19.5772 5.96582 19.3043Z" fill="#888888"/>
<path d="M16.247 17.4019C16.2777 17.3029 16.4114 17.3029 16.4422 17.4019L16.7218 18.3037C16.7356 18.348 16.775 18.378 16.8194 18.378H17.7245C17.8239 18.378 17.8652 18.5112 17.7848 18.5725L17.0526 19.1298C17.0166 19.1572 17.0016 19.2057 17.0153 19.25L17.295 20.1518C17.3257 20.2509 17.2175 20.3333 17.1371 20.272L16.4049 19.7147C16.3689 19.6873 16.3202 19.6873 16.2843 19.7147L15.552 20.272C15.4716 20.3333 15.3634 20.2509 15.3941 20.1518L15.6738 19.25C15.6876 19.2057 15.6725 19.1572 15.6366 19.1298L14.9043 18.5725C14.8239 18.5112 14.8652 18.378 14.9646 18.378H15.8697C15.9141 18.378 15.9536 18.348 15.9673 18.3037L16.247 17.4019Z" fill="white"/>
<path fill-rule="evenodd" clip-rule="evenodd" d="M16.4629 17.4689L16.4422 17.4019C16.4114 17.3029 16.2777 17.3029 16.247 17.4019L15.9673 18.3037C15.9536 18.348 15.9141 18.378 15.8697 18.378H14.9646C14.8652 18.378 14.8239 18.5112 14.9043 18.5725L15.6366 19.1298C15.6725 19.1572 15.6876 19.2057 15.6738 19.25L15.3941 20.1518C15.3634 20.2509 15.4716 20.3333 15.552 20.272L16.2843 19.7147C16.3202 19.6873 16.3689 19.6873 16.4049 19.7147L17.1371 20.272C17.2175 20.3333 17.3257 20.2509 17.295 20.1518L17.0153 19.25C17.0016 19.2057 17.0166 19.1572 17.0526 19.1298L17.7848 18.5725C17.8652 18.5112 17.8239 18.378 17.7245 18.378H16.8194C16.775 18.378 16.7356 18.348 16.7218 18.3037L16.4629 17.4689Z" fill="#888888"/>
<path fill-rule="evenodd" clip-rule="evenodd" d="M7.44775 8.9255V7.93701H8.43624V8.9255C8.43624 10.8362 9.9852 12.3852 11.8959 12.3852C13.8067 12.3852 15.3556 10.8362 15.3556 8.9255V7.93701H16.3441V8.9255C16.3441 11.3822 14.3526 13.3737 11.8959 13.3737C9.43926 13.3737 7.44775 11.3822 7.44775 8.9255Z" fill="#888888"/>
<path fill-rule="evenodd" clip-rule="evenodd" d="M11.9742 2.01229L11.8968 2.50043L11.8193 2.01229L11.8968 2L11.9742 2.01229ZM16.8442 7.09501C16.8558 7.07727 16.8682 7.05809 16.8814 7.03743C16.9623 6.91056 17.071 6.72803 17.1873 6.49851C17.4193 6.04099 17.6864 5.38763 17.8205 4.60911C17.8844 4.238 17.6911 3.94609 17.5018 3.76051C17.3105 3.57298 17.0511 3.41756 16.7819 3.28693C16.2371 3.02262 15.514 2.79521 14.8142 2.61069C14.1079 2.42448 13.3984 2.27508 12.8674 2.17245C12.6014 2.12104 12.379 2.08115 12.2228 2.05406C12.1447 2.0405 12.083 2.03014 12.0407 2.02313L11.9919 2.01514L11.979 2.01306L11.9742 2.01229C11.9741 2.01227 11.9742 2.01229 11.8968 2.50043C11.8193 2.01229 11.8194 2.01227 11.8193 2.01229L11.8145 2.01306L11.8017 2.01513L11.7531 2.02308C11.711 2.03006 11.6496 2.04038 11.5718 2.05388C11.4163 2.08086 11.1949 2.1206 10.93 2.17184C10.4011 2.27412 9.69421 2.42311 8.98972 2.60905C8.2915 2.79332 7.56956 3.02056 7.02372 3.2849C6.75376 3.41565 6.49428 3.57074 6.30182 3.75721C6.11228 3.94089 5.91696 4.22849 5.97108 4.59707C6.08658 5.38309 6.35619 6.04193 6.59447 6.50221C6.71407 6.73327 6.82711 6.91688 6.91167 7.0446C6.92502 7.06481 6.93772 7.08364 6.94963 7.10104C6.95294 7.17597 6.96287 7.26542 6.98521 7.36531C7.0462 7.63818 7.19645 7.97343 7.52626 8.29241C8.17555 8.92025 9.44753 9.41983 11.8968 9.41983C14.346 9.41983 15.618 8.92025 16.2672 8.29241C16.5971 7.97343 16.7473 7.63818 16.8083 7.36531C16.8312 7.26271 16.8411 7.17112 16.8442 7.09501ZM15.7032 7.44286H8.09034C8.12346 7.48734 8.16393 7.53395 8.21341 7.58179C8.58636 7.94244 9.53843 8.43134 11.8968 8.43134C14.2551 8.43134 15.2071 7.94244 15.5801 7.58179C15.6296 7.53395 15.6701 7.48734 15.7032 7.44286ZM7.70681 6.45437H16.0803C16.1425 6.35389 16.2213 6.21793 16.3057 6.05151C16.5007 5.66689 16.7209 5.12814 16.8368 4.49498C16.8303 4.4874 16.8215 4.47787 16.8097 4.46634C16.7303 4.38847 16.5817 4.28849 16.3504 4.17627C15.894 3.95487 15.2458 3.74678 14.5622 3.56651C13.8848 3.38793 13.1986 3.24324 12.6798 3.14298C12.4209 3.09294 12.2049 3.05419 12.0539 3.028C11.9888 3.0167 11.9358 3.00776 11.8968 3.00125C11.858 3.00772 11.8054 3.0166 11.7408 3.02781C11.5905 3.05388 11.3754 3.09248 11.1177 3.14234C10.601 3.24225 9.91751 3.38651 9.24198 3.56481C8.56017 3.74476 7.91251 3.95275 7.4546 4.17454C7.2227 4.28685 7.07181 4.38754 6.98971 4.46708C6.97454 4.4818 6.96386 4.49352 6.95655 4.50237C7.05574 5.13009 7.27415 5.66506 7.47229 6.04781C7.55972 6.21669 7.64221 6.35404 7.70681 6.45437ZM6.94192 4.5232C6.94177 4.52322 6.94231 4.52194 6.94395 4.51934C6.94286 4.52189 6.94207 4.52319 6.94192 4.5232ZM16.8535 4.51784C16.8534 4.51783 16.8526 4.51657 16.8515 4.51412C16.8531 4.51663 16.8537 4.51785 16.8535 4.51784Z" fill="#888888"/>
<path d="M13.1323 4.14825C13.1323 4.14825 12.2263 3.81875 11.8967 3.48926C11.5672 3.81875 10.6611 4.14825 10.6611 4.14825C10.6611 4.14825 10.9083 5.96047 11.8967 5.96047C12.8852 5.96047 13.1323 4.14825 13.1323 4.14825Z" fill="#888888"/>
</svg>
