<svg width="20" height="20" viewBox="0 0 20 20" fill="none" xmlns="http://www.w3.org/2000/svg">
<path d="M10.0005 13.8076L10.2587 13.9638L13.717 16.0555L13.7172 16.0556C13.9701 16.2087 14.2799 15.9845 14.2129 15.6966L13.2963 11.7635L13.2278 11.4696L13.4558 11.2721L16.5142 8.62209L16.5144 8.62194C16.7394 8.4271 16.6152 8.06299 16.327 8.04006L16.3243 8.03985L16.3243 8.03984L12.2993 7.69818L11.9989 7.67267L11.8812 7.39506L10.3062 3.67839L10.3056 3.67682C10.1938 3.41046 9.80611 3.41046 9.6943 3.67682L9.69349 3.67876L9.69348 3.67876L8.11848 7.38709L8.00072 7.66436L7.70056 7.68984L3.67556 8.03151L3.67292 8.03173L3.67292 8.03173C3.38467 8.05466 3.26046 8.41877 3.48552 8.6136L3.4857 8.61376L6.54403 11.2638L6.77203 11.4613L6.70356 11.7551L5.78694 15.6882L10.0005 13.8076ZM10.0005 13.8076L9.74193 13.9633M10.0005 13.8076L9.74193 13.9633M9.74193 13.9633L6.2836 16.0467L6.2827 16.0472M9.74193 13.9633L6.2827 16.0472M6.2827 16.0472C6.02982 16.2003 5.72015 15.9762 5.78689 15.6885L6.2827 16.0472ZM13.7833 11.65L16.8416 8.99997L13.7833 11.65Z" stroke="#555555"/>
</svg>
