<svg width="15" height="16" viewBox="0 0 15 16" fill="none" xmlns="http://www.w3.org/2000/svg">
<g clip-path="url(#clip0_402_24441)">
<path d="M10.3415 7.22285C10.2634 7.14525 10.1578 7.10169 10.0478 7.10169C9.93768 7.10169 9.83207 7.14525 9.754 7.22285C9.6764 7.30092 9.63284 7.40652 9.63284 7.5166C9.63284 7.62668 9.6764 7.73228 9.754 7.81035L11.3332 9.38952H3.74984V2.21452C3.74984 2.10401 3.70594 1.99803 3.6278 1.91989C3.54966 1.84175 3.44368 1.79785 3.33317 1.79785C3.22266 1.79785 3.11668 1.84175 3.03854 1.91989C2.9604 1.99803 2.9165 2.10401 2.9165 2.21452V9.38952C2.9165 9.61053 3.0043 9.82249 3.16058 9.97877C3.31686 10.1351 3.52882 10.2229 3.74984 10.2229H11.3123L9.754 11.7854C9.6764 11.8634 9.63284 11.969 9.63284 12.0791C9.63284 12.1892 9.6764 12.2948 9.754 12.3729C9.83161 12.4498 9.93636 12.4932 10.0457 12.4937C10.1005 12.494 10.1549 12.4835 10.2056 12.4628C10.2564 12.442 10.3026 12.4115 10.3415 12.3729L12.9165 9.80618L10.3415 7.22285Z" fill="#888888"/>
</g>
<defs>
<clipPath id="clip0_402_24441">
<rect width="15" height="15" fill="white" transform="translate(0 0.639648)"/>
</clipPath>
</defs>
</svg>
