<svg width="25" height="24" viewBox="0 0 25 24" fill="none" xmlns="http://www.w3.org/2000/svg">
<path d="M9.83337 16C8.01671 16 6.47921 15.3708 5.22087 14.1125C3.96254 12.8542 3.33337 11.3167 3.33337 9.5C3.33337 7.68333 3.96254 6.14583 5.22087 4.8875C6.47921 3.62917 8.01671 3 9.83337 3C11.65 3 13.1875 3.62917 14.4459 4.8875C15.7042 6.14583 16.3334 7.68333 16.3334 9.5C16.3334 10.2333 16.2167 10.925 15.9834 11.575C15.75 12.225 15.4334 12.8 15.0334 13.3L20.6334 18.9C20.8167 19.0833 20.9084 19.3167 20.9084 19.6C20.9084 19.8833 20.8167 20.1167 20.6334 20.3C20.45 20.4833 20.2167 20.575 19.9334 20.575C19.65 20.575 19.4167 20.4833 19.2334 20.3L13.6334 14.7C13.1334 15.1 12.5584 15.4167 11.9084 15.65C11.2584 15.8833 10.5667 16 9.83337 16ZM9.83337 14C11.0834 14 12.1459 13.5625 13.0209 12.6875C13.8959 11.8125 14.3334 10.75 14.3334 9.5C14.3334 8.25 13.8959 7.1875 13.0209 6.3125C12.1459 5.4375 11.0834 5 9.83337 5C8.58337 5 7.52087 5.4375 6.64587 6.3125C5.77087 7.1875 5.33337 8.25 5.33337 9.5C5.33337 10.75 5.77087 11.8125 6.64587 12.6875C7.52087 13.5625 8.58337 14 9.83337 14Z" fill="#888888"/>
</svg>
