<svg width="25" height="24" viewBox="0 0 25 24" fill="none" xmlns="http://www.w3.org/2000/svg">
<path d="M9.83331 16C8.01665 16 6.47915 15.3708 5.22081 14.1125C3.96248 12.8542 3.33331 11.3167 3.33331 9.5C3.33331 7.68333 3.96248 6.14583 5.22081 4.8875C6.47915 3.62917 8.01665 3 9.83331 3C11.65 3 13.1875 3.62917 14.4458 4.8875C15.7041 6.14583 16.3333 7.68333 16.3333 9.5C16.3333 10.2333 16.2166 10.925 15.9833 11.575C15.75 12.225 15.4333 12.8 15.0333 13.3L20.6333 18.9C20.8166 19.0833 20.9083 19.3167 20.9083 19.6C20.9083 19.8833 20.8166 20.1167 20.6333 20.3C20.45 20.4833 20.2166 20.575 19.9333 20.575C19.65 20.575 19.4166 20.4833 19.2333 20.3L13.6333 14.7C13.1333 15.1 12.5583 15.4167 11.9083 15.65C11.2583 15.8833 10.5666 16 9.83331 16ZM9.83331 14C11.0833 14 12.1458 13.5625 13.0208 12.6875C13.8958 11.8125 14.3333 10.75 14.3333 9.5C14.3333 8.25 13.8958 7.1875 13.0208 6.3125C12.1458 5.4375 11.0833 5 9.83331 5C8.58331 5 7.52081 5.4375 6.64581 6.3125C5.77081 7.1875 5.33331 8.25 5.33331 9.5C5.33331 10.75 5.77081 11.8125 6.64581 12.6875C7.52081 13.5625 8.58331 14 9.83331 14Z" fill="#212121"/>
</svg>
