<svg width="20" height="20" viewBox="0 0 20 20" fill="none" xmlns="http://www.w3.org/2000/svg">
<g clip-path="url(#clip0_293_12476)">
<path d="M17.6905 16.3783C18.717 15.1442 19.431 13.6813 19.772 12.1132C20.113 10.5451 20.071 8.91807 19.6495 7.36964C19.2281 5.82121 18.4396 4.39699 17.3507 3.21744C16.2619 2.0379 14.9047 1.13774 13.394 0.593105C11.8834 0.048474 10.2637 -0.124603 8.67188 0.0885157C7.08011 0.301634 5.56313 0.894678 4.24926 1.81748C2.93539 2.74028 1.86329 3.96569 1.12365 5.39005C0.384015 6.8144 -0.00140285 8.3958 3.83677e-06 10.0005C0.000604732 12.3332 0.823321 14.5912 2.32381 16.3783L2.30951 16.3905C2.35955 16.4504 2.41673 16.5019 2.4682 16.5611C2.53253 16.6347 2.60186 16.704 2.66834 16.7754C2.86753 16.993 3.07482 17.2001 3.29021 17.3968C3.35693 17.4558 3.42364 17.5134 3.49035 17.5696C3.71909 17.7672 3.95497 17.9534 4.198 18.1281C4.22945 18.1495 4.25805 18.1774 4.2895 18.1995V18.191C5.96358 19.3682 7.96074 20 10.0079 20C12.055 20 14.0521 19.3682 15.7262 18.191V18.1995C15.7577 18.1774 15.7856 18.1495 15.8177 18.1281C16.0608 17.9529 16.2966 17.7667 16.5254 17.5696C16.5921 17.5129 16.6588 17.4553 16.7255 17.3968C16.9404 17.2001 17.1477 16.993 17.3474 16.7754C17.4139 16.704 17.4825 16.6347 17.5475 16.5611C17.5983 16.5019 17.6562 16.4504 17.7062 16.3897L17.6905 16.3783ZM10.0072 4.28684C10.6433 4.28684 11.2652 4.47533 11.7942 4.82848C12.3232 5.18163 12.7354 5.68357 12.9789 6.27084C13.2223 6.85811 13.286 7.50432 13.1619 8.12776C13.0378 8.7512 12.7315 9.32386 12.2816 9.77334C11.8318 10.2228 11.2586 10.5289 10.6347 10.6529C10.0107 10.7769 9.36397 10.7133 8.77622 10.47C8.18847 10.2268 7.6861 9.81484 7.33266 9.28631C6.97922 8.75779 6.79057 8.13641 6.79057 7.50075C6.79057 6.64837 7.12946 5.8309 7.73268 5.22817C8.33591 4.62544 9.15406 4.28684 10.0072 4.28684ZM4.29378 16.3783C4.30618 15.4405 4.6876 14.5453 5.35551 13.8864C6.02343 13.2275 6.92413 12.8578 7.86276 12.8573H12.1515C13.0902 12.8578 13.9909 13.2275 14.6588 13.8864C15.3267 14.5453 15.7081 15.4405 15.7205 16.3783C14.1529 17.7898 12.1174 18.571 10.0072 18.571C7.89689 18.571 5.86145 17.7898 4.29378 16.3783Z" fill="#CCCCCC"/>
</g>
<defs>
<clipPath id="clip0_293_12476">
<rect width="20" height="20" fill="white"/>
</clipPath>
</defs>
</svg>
